<svg xmlns="http://www.w3.org/2000/svg" width="796" height="664" viewBox="0 0 796 664" version="1.1"><path d="M 394.244 216.525 C 389.703 217.880, 383.213 220.116, 379.821 221.494 C 376.430 222.873, 373.100 224, 372.421 224 C 370.453 224, 347.433 235.737, 336.500 242.315 C 325.136 249.153, 306.977 263.271, 299.381 271.174 C 289.501 281.454, 276.131 300.198, 270.618 311.500 C 265.783 321.410, 260.173 335.656, 258.015 343.500 C 250.241 371.758, 249.596 376.532, 250.380 399.935 C 250.741 410.696, 251.268 421.300, 251.551 423.500 L 252.065 427.500 250.066 423.862 C 240.514 406.477, 238.734 383.459, 244.469 351.507 C 247.034 337.216, 247.033 334.610, 244.462 333.624 C 242.001 332.680, 240.522 333.829, 235.233 340.795 C 220.243 360.540, 211.801 380.498, 204.904 412.500 C 201.970 426.113, 201.339 446.193, 203.391 460.627 C 205.572 475.968, 205.335 474.805, 208.769 487 C 217.621 518.431, 234.683 547.806, 257.694 571.231 C 266.505 580.201, 268.985 581.836, 269.009 578.691 C 269.014 578.036, 270.998 572.653, 273.419 566.729 C 280.571 549.221, 290.125 535.450, 299.679 528.877 C 302.133 527.189, 304.272 525.963, 304.433 526.154 C 304.594 526.344, 309.213 540, 314.696 556.500 C 321.572 577.190, 325.145 586.593, 326.209 586.799 C 327.389 587.028, 328.285 584.913, 330.022 577.799 C 338.580 542.739, 350.878 526.295, 361.719 535.417 C 365.737 538.798, 368.907 545.130, 375.413 562.768 C 385.702 590.663, 389.847 612.031, 388.682 631.168 L 388.094 640.837 391.297 641.985 C 398.540 644.581, 442 647.546, 442 645.445 C 442 645.140, 441.036 642.777, 439.858 640.195 C 426.794 611.559, 421.156 591.502, 420.266 570.500 C 419.821 560.001, 420.978 545.689, 422.385 544.282 C 423.458 543.208, 433.448 549.713, 436.498 553.471 C 442.489 560.854, 447.627 572.936, 450.966 587.493 C 453.235 597.384, 454.948 597.200, 457.643 586.776 C 462.407 568.348, 470.784 551.714, 476.893 548.556 C 482.923 545.437, 489.216 547.483, 494.367 554.237 C 497.392 558.203, 502.713 569.604, 506.041 579.250 C 507.322 582.962, 508.701 586, 509.105 586 C 509.510 586, 510.159 584.538, 510.548 582.750 C 510.937 580.962, 513.043 573.875, 515.227 567 C 521.876 546.075, 529.736 533.294, 539.932 526.828 C 546.744 522.508, 547.520 522.866, 548.853 530.943 C 552.137 550.828, 548.651 579.412, 539.543 607.281 C 538.144 611.560, 537 615.325, 537 615.647 C 537 615.969, 538.740 614.718, 540.867 612.866 C 542.993 611.015, 546.702 607.925, 549.109 606 C 556.378 600.186, 558.580 597.423, 564.864 586.230 C 571.479 574.447, 573.544 569.311, 577.495 554.812 C 581.280 540.921, 581.957 534.779, 581.980 514.170 C 582.022 476.174, 576.345 452.958, 559.950 424.069 C 552.824 411.514, 545.130 400.991, 536 391.314 C 527.096 381.877, 509.364 365.507, 504.501 362.235 C 502.300 360.754, 498.700 358.152, 496.500 356.453 C 484.908 347.501, 476.791 344.352, 473.582 347.561 C 470.647 350.495, 472.176 353.707, 484.496 370.500 C 486.918 373.800, 488.921 376.778, 488.949 377.118 C 488.977 377.457, 491.001 380.719, 493.446 384.365 C 499.753 393.771, 506.107 407.579, 510.884 422.263 C 514.628 433.771, 514.991 435.800, 514.896 444.707 L 514.792 454.500 513.066 447.379 C 509.539 432.827, 503.256 418.660, 494.714 406 C 483.557 389.464, 466.144 370.359, 450.500 357.490 C 417.251 330.140, 403.501 313.606, 396.454 292.500 C 393.965 285.047, 393.815 283.613, 394.256 271.500 C 394.612 261.710, 395.247 257.067, 396.828 252.697 C 399.626 244.968, 405.984 232.370, 410.588 225.433 C 413.742 220.681, 414.176 219.400, 413.390 217.156 C 412.569 214.809, 411.882 214.474, 407.481 214.281 C 404.490 214.149, 399.201 215.046, 394.244 216.525 M 351.976 601.750 C 350.878 607.671, 346.703 621.498, 344.622 626.107 C 344.088 627.288, 344.639 627.987, 346.698 628.745 C 348.239 629.312, 353.100 631.138, 357.500 632.802 C 361.900 634.466, 367.264 636.156, 369.420 636.557 L 373.340 637.286 371.111 634.155 C 367.449 629.013, 362.361 617.151, 359.081 606.111 C 357.386 600.407, 356 595.573, 356 595.370 C 356 595.166, 355.376 595, 354.613 595 C 353.691 595, 352.807 597.263, 351.976 601.750 M 299 603.891 C 299 604.462, 299.940 605.433, 301.089 606.048 C 302.879 607.005, 303.128 606.904, 302.828 605.344 C 302.458 603.423, 299 602.111, 299 603.891 M 480.488 606.750 C 478.532 618.928, 472.917 636.646, 469.706 640.774 C 467.904 643.090, 469.912 643.349, 476.748 641.681 C 485.475 639.552, 493.324 636.529, 493.795 635.115 C 493.999 634.502, 491.842 627.026, 489 618.501 C 483.618 602.351, 481.635 599.613, 480.488 606.750" stroke="none" fill="#49f468" fill-rule="evenodd"/><path d="M 366 1.883 C 344.596 5.232, 334.334 9.579, 325.784 18.917 C 317.800 27.638, 315.625 33.308, 315.206 46.500 C 314.874 56.955, 315.202 59.134, 321.823 90.500 C 325.654 108.650, 329.345 126.875, 330.026 131 C 333.907 154.525, 340.941 166.303, 355.228 173.198 C 365.089 177.959, 369.509 178.500, 398.500 178.500 C 421.900 178.500, 426.296 178.254, 431.470 176.658 C 440 174.026, 444.590 171.464, 450.242 166.177 C 459.325 157.681, 461.877 150.218, 469.025 111.251 C 471.824 95.988, 475.479 77.425, 477.147 70 C 479.756 58.384, 480.112 55.105, 479.703 46.500 C 479.171 35.292, 477.527 29.990, 472.067 21.871 C 467.380 14.903, 461.956 10.922, 451.931 7.094 C 438.384 1.921, 430.279 0.829, 402.500 0.437 C 382.063 0.148, 375.401 0.412, 366 1.883 M 83.500 31.191 C 69.832 31.978, 57.676 34.102, 52.819 36.551 C 48.254 38.852, 43.191 43.790, 40.960 48.116 C 38.317 53.244, 37 65.735, 37 85.689 C 37 104.385, 37.969 109.530, 42.661 115.759 C 44.011 117.552, 47.002 120.027, 49.308 121.259 C 53.125 123.300, 54.841 123.497, 68.500 123.467 C 76.750 123.449, 92.214 123.039, 102.864 122.557 L 122.228 121.680 127.864 117.465 C 139.166 109.014, 150.414 105.043, 163.128 105.015 C 170.858 104.998, 171.454 104.515, 173.513 96.612 C 177.167 82.583, 187.502 69.443, 201.913 60.500 C 206.653 57.559, 210.214 54.629, 210.560 53.384 C 210.884 52.221, 210.619 49.296, 209.971 46.884 C 208.338 40.809, 202.775 35.754, 194.804 33.101 C 188.781 31.097, 186.225 30.983, 141.987 30.747 C 116.419 30.611, 90.100 30.811, 83.500 31.191 M 605 31.431 C 591.575 35.167, 583.795 43.646, 585.163 53.052 C 585.405 54.710, 587.626 56.642, 593 59.868 C 606.914 68.221, 617.805 81.899, 621.206 95.291 C 622.180 99.128, 623.488 102.883, 624.111 103.634 C 624.890 104.572, 627.656 105, 632.941 105 C 644.882 105, 657.610 109.655, 666.907 117.422 C 669.271 119.397, 672.172 121.213, 673.353 121.456 C 676.257 122.055, 709.317 123.275, 726 123.399 C 742.492 123.522, 747.507 122.043, 752.100 115.703 C 757.087 108.819, 758.363 102.474, 758.276 85 C 758.193 68.142, 756.743 54.899, 754.320 48.842 C 753.471 46.720, 750.557 42.989, 747.845 40.551 C 742.408 35.662, 737.530 33.868, 724.500 31.966 C 712.242 30.177, 674.944 29.925, 654.014 31.490 C 638.135 32.678, 634.398 32.673, 627.514 31.455 C 617.893 29.752, 611.058 29.745, 605 31.431 M 512 40.906 C 503.477 42.678, 495.139 48.973, 491.691 56.238 C 490.733 58.258, 489.486 62.518, 488.920 65.705 C 488.354 68.892, 484.036 87.475, 479.324 107 C 471.467 139.560, 470.802 143.100, 471.301 149.740 C 471.948 158.365, 475.446 166.763, 479.622 169.718 C 481.205 170.839, 488.575 174.789, 496 178.495 C 503.425 182.202, 512.425 186.920, 516 188.980 C 519.575 191.040, 525.650 193.914, 529.500 195.368 C 533.350 196.823, 539.253 199.378, 542.617 201.046 C 548.763 204.095, 557 210.391, 557 212.040 C 557 215.581, 562.046 225.069, 567.212 231.242 C 570.553 235.234, 576.529 242.775, 580.493 248 C 593.116 264.643, 599.566 268.589, 612.909 267.835 C 619.327 267.473, 621.546 266.527, 659.076 248.154 C 680.759 237.540, 699.862 227.816, 701.526 226.548 C 703.190 225.279, 705.890 221.824, 707.526 218.870 C 710.319 213.827, 710.500 212.831, 710.500 202.500 C 710.500 192.244, 710.288 191.052, 707.362 184.877 C 701.915 173.381, 681.096 146.080, 667.015 131.968 C 656.121 121.050, 646.650 117, 632.013 117 C 620.504 117, 616.424 114.170, 610.918 102.367 C 602.161 83.592, 596.172 77.866, 584.765 77.365 C 581.510 77.222, 577.336 76.606, 575.489 75.996 C 571.013 74.519, 565.830 68.597, 561.518 60.036 C 558.274 53.595, 557.494 52.773, 551.965 49.983 C 538.282 43.075, 520.734 39.090, 512 40.906 M 260.588 43.112 C 252.385 45.450, 224.090 59.130, 211.794 66.704 C 201.478 73.058, 192.852 80.682, 189.527 86.383 C 188.207 88.647, 186.241 93.713, 185.158 97.639 C 184.075 101.566, 182.690 105.710, 182.081 106.849 C 179.388 111.880, 168.763 117, 161.014 117 C 149.179 117, 137.977 121.864, 128.944 130.924 C 114.203 145.710, 93.134 173.215, 87.773 184.671 C 83.749 193.271, 82.801 205.363, 85.439 214.438 C 88.352 224.457, 90.686 226.014, 136.133 248.255 C 176.253 267.890, 176.541 268.011, 183.124 268.005 C 190.646 267.999, 196.822 266.136, 201.731 262.391 C 203.584 260.978, 210.365 253.273, 216.800 245.269 C 232.503 225.737, 232.663 225.514, 236.618 217.510 C 242.357 205.897, 248.009 201.313, 262.500 196.519 C 266.900 195.063, 275.225 191.223, 281 187.986 C 286.775 184.748, 295.100 180.440, 299.500 178.412 C 313.452 171.980, 317.788 168.686, 320.820 162.218 C 323.190 157.161, 323.492 155.344, 323.428 146.500 C 323.365 137.841, 322.650 133.751, 318.097 116 C 315.205 104.725, 310.878 86.870, 308.481 76.322 C 305.226 61.997, 303.429 56.094, 301.376 52.993 C 298.390 48.480, 292.473 43.990, 287.101 42.159 C 281.894 40.384, 268.467 40.867, 260.588 43.112 M 60.338 131.903 C 52.831 132.849, 43.770 137.110, 41.003 140.996 C 36.092 147.892, 35.733 150.662, 35.944 180 C 36.239 221.047, 38.592 229.063, 50.832 230.704 C 56.432 231.455, 66.027 227.012, 69.440 222.087 C 71.808 218.669, 72 217.567, 72 207.378 C 72 189.616, 75.758 180.401, 91.588 159.354 C 96.905 152.285, 101.873 145.052, 102.628 143.282 C 104.399 139.129, 104.380 134.560, 102.586 133.071 C 100.855 131.635, 69.374 130.764, 60.338 131.903 M 695.500 131.724 C 692.162 132.544, 691 134.081, 691 137.672 C 691 142.400, 692.642 145.215, 704.220 160.335 C 719.682 180.527, 723.724 190.935, 722.702 207.916 C 721.866 221.808, 722.648 223.466, 732 227.614 C 736.125 229.443, 740.850 230.952, 742.500 230.966 C 746.489 231.001, 751.221 227.997, 753.832 223.771 C 758.038 216.967, 758.891 210.172, 759.205 181 C 759.471 156.242, 759.315 153.001, 757.647 148.500 C 753.175 136.430, 747.602 133.203, 729.038 131.932 C 715.674 131.018, 698.799 130.913, 695.500 131.724 M 70.500 236.332 C 64.404 238.339, 58.312 242.586, 55.029 247.118 C 49.323 254.996, 38.517 287.154, 34.403 308.500 C 33.450 313.450, 32.635 322.225, 32.594 328 C 32.531 336.655, 32.886 339.300, 34.615 343.051 C 37.542 349.404, 42.274 354.470, 47.764 357.128 C 52.153 359.253, 53.852 359.406, 75.470 359.628 C 88.136 359.758, 111.775 360.008, 128 360.182 C 157.055 360.495, 157.564 360.466, 161.749 358.230 C 164.086 356.982, 167.091 354.282, 168.427 352.230 C 171.771 347.096, 182 305.829, 182 297.474 C 182 284.291, 176.601 276.428, 163.416 270.410 C 148.260 263.491, 125.384 252.748, 107.675 244.232 C 90.716 236.077, 89.478 235.645, 82.175 235.338 C 77.629 235.147, 72.869 235.552, 70.500 236.332 M 708.444 235.859 C 706.213 236.257, 702.248 237.914, 699.634 239.542 C 697.020 241.169, 693.172 243.400, 691.084 244.500 C 688.996 245.600, 685.632 247.963, 683.609 249.750 C 681.586 251.537, 679.511 253, 678.999 253 C 678.486 253, 675.878 254.944, 673.203 257.320 C 662.184 267.107, 662.506 266.967, 644.784 269.667 C 627.114 272.360, 622.443 274.165, 618.192 279.940 C 611.991 288.366, 611.529 297.714, 616.392 316.439 C 618.257 323.622, 620.758 333.859, 621.949 339.187 C 623.140 344.516, 625.119 350.366, 626.346 352.187 C 631.325 359.579, 643.484 362.725, 662.485 361.539 C 672.408 360.920, 674.352 360.463, 682.092 356.926 C 686.817 354.767, 691.992 353.003, 693.592 353.006 C 695.191 353.010, 701.225 354.375, 707 356.040 C 720.550 359.946, 735.064 360.996, 743.125 358.652 C 750.326 356.559, 756.965 350.749, 760.111 343.788 C 762.194 339.178, 762.496 337.026, 762.466 327 C 762.437 317.111, 761.908 313.409, 758.691 300.574 C 753.389 279.423, 747.310 260.623, 743.209 252.689 C 739.480 245.475, 734.054 240.174, 727.667 237.505 C 723.237 235.655, 714.014 234.865, 708.444 235.859 M 46.512 368.239 C 43.257 368.646, 38.998 369.488, 37.047 370.111 C 30.262 372.276, 19.995 378.263, 16.575 382.049 C 10.499 388.774, 10.011 393.665, 12.580 422.046 C 13.700 434.411, 13.969 444.098, 13.502 455.271 L 12.843 471.043 16.171 474.362 L 19.500 477.682 39 478.320 C 49.725 478.671, 71.325 479.867, 87 480.979 C 130.732 484.080, 150.644 484.524, 162 482.651 C 168.832 481.524, 171.939 480.544, 173.062 479.164 C 176.362 475.106, 178.421 420.927, 176.012 401.559 C 173.706 383.029, 163.370 372.422, 144.319 369.036 C 137.164 367.764, 55.630 367.100, 46.512 368.239 M 737.982 368.351 C 737.697 368.636, 719.247 369.133, 696.982 369.455 C 674.717 369.777, 653.150 370.283, 649.056 370.580 C 635.581 371.555, 624.987 376.754, 620.350 384.666 C 615.807 392.418, 615.025 397.756, 615.012 421.090 C 614.999 444.292, 614.948 443.944, 621.795 466.977 C 624.209 475.098, 625.051 476.710, 627.677 478.243 C 631.717 480.603, 655.476 483.154, 662.500 481.982 C 665.250 481.524, 671.550 480.416, 676.500 479.520 C 681.450 478.624, 695.744 477.462, 708.264 476.937 C 728.091 476.105, 731.957 476.194, 738.237 477.622 C 751.941 480.739, 766.269 477.953, 773.838 470.699 C 778.245 466.475, 780.456 461.993, 782.859 452.413 C 786.494 437.918, 787.286 429.848, 786.749 412.789 C 785.945 387.263, 781.873 377.643, 769.402 371.807 C 763.603 369.094, 761.679 368.733, 750.719 368.308 C 743.998 368.046, 738.267 368.066, 737.982 368.351 M 676.500 485.895 C 671 486.830, 665.552 488.117, 664.394 488.756 C 663.213 489.407, 656.290 490.100, 648.628 490.336 C 635.971 490.724, 634.682 490.945, 631.055 493.345 C 626.677 496.242, 621.304 503.454, 619.915 508.297 C 617.828 515.574, 613.920 554.595, 613.435 573 C 612.986 590.033, 610.426 623.447, 609.446 625.073 C 609.256 625.388, 609.539 628.743, 610.075 632.528 C 611.730 644.212, 616.195 649.570, 629.234 655.517 C 644.782 662.608, 656.360 663.791, 693.500 662.082 C 706.700 661.474, 731.562 660.526, 748.748 659.975 C 776.402 659.089, 780.634 658.735, 785.543 656.898 C 789.706 655.340, 791.722 653.866, 793.630 650.983 C 796.139 647.191, 796.167 646.936, 795.824 630.322 L 795.477 613.500 791.872 606 C 789.889 601.875, 786.396 595.350, 784.110 591.500 C 781.823 587.650, 778.779 580.900, 777.345 576.500 C 774.904 569.014, 774.719 567.087, 774.458 546.500 C 774.145 521.837, 772.795 512.432, 768.135 502.475 C 762.821 491.119, 756.996 488.366, 735.244 486.926 C 726.585 486.353, 717.700 485.472, 715.500 484.967 C 709.176 483.516, 687.452 484.033, 676.500 485.895 M 22 485.924 C 13.276 487.176, 8.910 489.756, 5.813 495.490 C -1.144 508.370, -1.984 529.742, 3.053 565.702 C 6.354 589.266, 7.356 609.341, 5.792 620.582 C 3.701 635.615, 8.122 653.097, 15.312 658.226 C 19.642 661.315, 28.836 661.093, 48.500 657.426 C 67.244 653.931, 82.035 653.737, 134.044 656.303 C 159.377 657.554, 171.403 657.797, 173.242 657.098 C 179.005 654.907, 180.183 649.724, 182.015 618.500 C 183.741 589.056, 180.473 502.101, 177.461 497.364 C 176.715 496.190, 174.168 494.321, 171.802 493.212 C 167.897 491.381, 164.825 491.145, 138.500 490.655 C 122.550 490.358, 97.800 489.212, 83.500 488.108 C 51.875 485.668, 29.358 484.868, 22 485.924 M 539.932 526.828 C 529.736 533.294, 521.876 546.075, 515.227 567 C 513.043 573.875, 510.937 580.962, 510.548 582.750 C 510.159 584.538, 509.510 586, 509.105 586 C 508.701 586, 507.322 582.962, 506.041 579.250 C 502.713 569.604, 497.392 558.203, 494.367 554.237 C 489.216 547.483, 482.923 545.437, 476.893 548.556 C 470.784 551.714, 462.407 568.348, 457.643 586.776 C 454.948 597.200, 453.235 597.384, 450.966 587.493 C 447.627 572.936, 442.489 560.854, 436.498 553.471 C 433.448 549.713, 423.458 543.208, 422.385 544.282 C 420.978 545.689, 419.821 560.001, 420.266 570.500 C 421.152 591.403, 426.252 609.660, 439.665 639.943 C 443.922 649.555, 447.918 657.686, 449.210 659.367 C 450.547 661.107, 450.852 661.128, 453.677 659.667 C 455.344 658.805, 458.962 655.634, 461.715 652.621 C 470.428 643.088, 477.379 626.103, 480.488 606.750 C 481.807 598.541, 483.694 602.293, 493.562 632.750 C 498.863 649.112, 503.551 662.873, 503.979 663.328 C 505.199 664.628, 514.351 659.504, 517.775 655.604 C 524.469 647.979, 531.607 632.328, 538.811 609.478 C 549.050 576.999, 552.284 551.712, 548.853 530.943 C 547.520 522.866, 546.744 522.508, 539.932 526.828 M 299 529.355 C 281.558 542.167, 266.006 576.062, 260.561 613.128 C 258.752 625.443, 258.635 649.843, 260.346 658 L 261.500 663.500 266.337 663.808 C 272.476 664.200, 274.606 662.813, 280.457 654.612 C 288.907 642.770, 297.031 622.100, 298.650 608.317 C 299.148 604.086, 299.636 602.975, 300.893 603.214 C 301.777 603.383, 302.638 604.641, 302.806 606.010 C 304.015 615.846, 313.120 636.240, 318.215 640.528 C 331.280 651.521, 345.626 634.873, 352.064 601.250 C 353.481 593.848, 355.416 593.070, 357.040 599.250 C 363.072 622.209, 372.057 639.309, 381.474 645.754 L 386.448 649.158 387.196 646.359 C 387.608 644.819, 388.242 638.589, 388.605 632.514 C 389.840 611.854, 385.970 591.391, 375.413 562.768 C 368.907 545.130, 365.737 538.798, 361.719 535.417 C 350.878 526.295, 338.580 542.739, 330.022 577.799 C 328.281 584.930, 327.390 587.029, 326.203 586.799 C 325.131 586.592, 321.556 577.187, 314.589 556.250 C 309.054 539.612, 304.294 526.011, 304.012 526.025 C 303.731 526.038, 301.475 527.537, 299 529.355" stroke="none" fill="#1f1f1f" fill-rule="evenodd"/></svg>